<?xml version="1.0" encoding="UTF-8"?>
<svg id="Layer_2" data-name="Layer 2" xmlns="http://www.w3.org/2000/svg" xmlns:xlink="http://www.w3.org/1999/xlink" viewBox="0 0 14.3 16.23">
  <defs>
    <style>
      .cls-1 {
        fill: url(#linear-gradient);
      }

      .cls-1, .cls-2, .cls-3, .cls-4, .cls-5, .cls-6, .cls-7 {
        stroke-width: 0px;
      }

      .cls-2 {
        fill: url(#linear-gradient-6);
      }

      .cls-3 {
        fill: url(#linear-gradient-5);
      }

      .cls-4 {
        fill: url(#linear-gradient-2);
      }

      .cls-5 {
        fill: url(#linear-gradient-7);
      }

      .cls-8 {
        fill: none;
        stroke: #000;
        stroke-linejoin: bevel;
      }

      .cls-6 {
        fill: url(#linear-gradient-3);
      }

      .cls-7 {
        fill: url(#linear-gradient-4);
      }
    </style>
    <linearGradient id="linear-gradient" x1="3.93" y1="6.25" x2="10.51" y2="10.05" gradientUnits="userSpaceOnUse">
      <stop offset="0" stop-color="#ffb7a4"/>
      <stop offset="1" stop-color="#e7542d"/>
    </linearGradient>
    <linearGradient id="linear-gradient-2" x1="6.31" y1="1.89" x2="12.96" y2="5.73" gradientUnits="userSpaceOnUse">
      <stop offset="0" stop-color="#fb7754"/>
      <stop offset="1" stop-color="#ba3512"/>
    </linearGradient>
    <linearGradient id="linear-gradient-3" x1="10.51" y1="8.11" x2="13.8" y2="8.11" xlink:href="#linear-gradient-2"/>
    <linearGradient id="linear-gradient-4" x1="7.2" y1="11.98" x2="12.14" y2="14.83" xlink:href="#linear-gradient-2"/>
    <linearGradient id="linear-gradient-5" x1="3.02" y1="10.5" x2="6.35" y2="16.26" gradientUnits="userSpaceOnUse">
      <stop offset="0" stop-color="#ff9478"/>
      <stop offset="1" stop-color="#ba3512"/>
    </linearGradient>
    <linearGradient id="linear-gradient-6" x1="-1.16" y1="7.15" x2="3.91" y2="10.08" gradientUnits="userSpaceOnUse">
      <stop offset="0" stop-color="#ffb7a4"/>
      <stop offset="1" stop-color="#fb7754"/>
    </linearGradient>
    <linearGradient id="linear-gradient-7" x1="2.16" y1="1.39" x2="7.24" y2="4.32" gradientUnits="userSpaceOnUse">
      <stop offset="0" stop-color="#ffb7a4"/>
      <stop offset="1" stop-color="#e7542d"/>
    </linearGradient>
  </defs>
  <g id="Layer_1-2" data-name="Layer 1">
    <g>
      <polygon class="cls-1" points="7.22 4.35 10.51 6.25 10.51 10.05 7.22 11.95 3.93 10.05 3.93 6.25 7.22 4.35"/>
      <polygon class="cls-4" points="7.15 .43 13.8 4.27 10.51 6.25 7.22 4.35 7.15 .43"/>
      <polygon class="cls-6" points="10.51 10.05 10.51 6.25 13.8 4.27 13.8 11.95 10.51 10.05"/>
      <polygon class="cls-7" points="7.22 11.95 10.51 10.05 13.8 11.95 7.15 15.79 7.22 11.95"/>
      <polygon class="cls-3" points="3.93 10.05 7.22 11.95 7.15 15.79 .5 11.95 3.93 10.05"/>
      <polygon class="cls-2" points=".5 4.27 3.93 6.25 3.93 10.05 .5 11.95 .5 4.27"/>
      <polygon class="cls-5" points="7.15 .43 7.22 4.35 3.93 6.25 .5 4.27 7.15 .43"/>
      <polygon class="cls-8" points="7.15 .43 13.8 4.27 13.8 11.95 7.15 15.79 .5 11.95 .5 4.27 7.15 .43"/>
    </g>
  </g>
</svg>