<?xml version="1.0" encoding="UTF-8"?>
<svg id="Layer_2" data-name="Layer 2" xmlns="http://www.w3.org/2000/svg" xmlns:xlink="http://www.w3.org/1999/xlink" viewBox="0 0 16.31 15.51">
  <defs>
    <style>
      .cls-1 {
        fill: url(#linear-gradient);
      }

      .cls-1, .cls-2, .cls-3, .cls-4, .cls-5, .cls-6 {
        stroke-width: 0px;
      }

      .cls-2 {
        fill: url(#linear-gradient-6);
      }

      .cls-3 {
        fill: url(#linear-gradient-5);
      }

      .cls-4 {
        fill: url(#linear-gradient-2);
      }

      .cls-7 {
        fill: none;
        stroke: #000;
        stroke-linejoin: bevel;
      }

      .cls-5 {
        fill: url(#linear-gradient-3);
      }

      .cls-6 {
        fill: url(#linear-gradient-4);
      }
    </style>
    <linearGradient id="linear-gradient" x1="4.61" y1="6.73" x2="11.22" y2="10.55" gradientUnits="userSpaceOnUse">
      <stop offset="0" stop-color="#cfc4e0"/>
      <stop offset="1" stop-color="#5d4087"/>
    </linearGradient>
    <linearGradient id="linear-gradient-2" x1="8.16" y1="3.82" x2="15.84" y2="3.82" gradientUnits="userSpaceOnUse">
      <stop offset="0" stop-color="#7e65a3"/>
      <stop offset="1" stop-color="#41246b"/>
    </linearGradient>
    <linearGradient id="linear-gradient-3" x1="11.17" y1="8.65" x2="15.22" y2="10.99" xlink:href="#linear-gradient-2"/>
    <linearGradient id="linear-gradient-4" x1="3.41" y1="13.38" x2="12.9" y2="13.38" xlink:href="#linear-gradient-2"/>
    <linearGradient id="linear-gradient-5" x1="-.9" y1="8.37" x2="5.57" y2="12.11" gradientUnits="userSpaceOnUse">
      <stop offset="0" stop-color="#cfc4e0"/>
      <stop offset="1" stop-color="#5d4087"/>
    </linearGradient>
    <linearGradient id="linear-gradient-6" x1="2.64" y1="2.23" x2="7.74" y2="5.17" xlink:href="#linear-gradient-5"/>
  </defs>
  <g id="Layer_1-2" data-name="Layer 1">
    <g>
      <polygon class="cls-1" points="8.16 4.44 4.32 7.23 5.78 11.75 10.53 11.75 12 7.23 8.16 4.44"/>
      <polygon class="cls-4" points="8.16 .4 8.16 4.44 12 7.23 15.84 5.98 8.16 .4"/>
      <polygon class="cls-5" points="10.53 11.75 12 7.23 15.84 5.98 12.9 15.01 10.53 11.75"/>
      <polygon class="cls-6" points="5.78 11.75 10.53 11.75 12.9 15.01 3.41 15.01 5.78 11.75"/>
      <polygon class="cls-3" points=".48 5.98 4.32 7.23 5.78 11.75 3.41 15.01 .48 5.98"/>
      <polygon class="cls-2" points="8.16 .4 8.16 4.44 4.32 7.23 .48 5.98 8.16 .4"/>
      <polygon class="cls-7" points="8.16 .4 15.84 5.98 12.9 15.01 3.41 15.01 .48 5.98 8.16 .4"/>
    </g>
  </g>
</svg>